# Blender v3.0.0 OBJ File: ''
# www.blender.org
mtllib Oktagon2.mtl
o Cube_Cube.001
v -1.000000 -1.000000 1.000000
v -1.000000 1.000000 1.000000
v -1.000000 -1.000000 -1.000000
v -1.000000 1.000000 -1.000000
v 1.000000 -1.000000 1.000000
v 1.000000 1.000000 1.000000
v 1.000000 -1.000000 -1.000000
v 1.000000 1.000000 -1.000000
v -1.452442 -1.000000 0.000000
v -1.000000 0.000000 1.000000
v -1.452442 1.000000 0.000000
v -1.000000 0.000000 -1.000000
v 0.000000 -1.000000 -1.373824
v 0.000000 1.000000 -1.373824
v 1.000000 0.000000 -1.000000
v 1.508225 -1.000000 0.000000
v 1.508225 1.000000 0.000000
v 1.000000 0.000000 1.000000
v 0.000000 -1.000000 1.438307
v 0.000000 1.000000 1.438307
v 0.000000 1.000000 0.000000
v 0.000000 -1.000000 0.000000
v 0.000000 0.000000 1.438307
v 1.508225 0.000000 0.000000
v 0.000000 0.000000 -1.373824
v -1.452442 0.000000 0.000000
v -1.452442 -1.000000 0.500000
v -1.000000 0.500000 1.000000
v -1.452442 1.000000 -0.500000
v -1.000000 -0.500000 -1.000000
v -0.500000 -1.000000 -1.373824
v 0.500000 1.000000 -1.373824
v 1.000000 -0.500000 -1.000000
v 1.508225 -1.000000 -0.500000
v 1.508225 1.000000 0.500000
v 1.000000 -0.500000 1.000000
v 0.500000 -1.000000 1.438307
v -0.500000 1.000000 1.438307
v -1.452442 -1.000000 -0.500000
v -1.000000 -0.500000 1.000000
v -1.452442 1.000000 0.500000
v -1.000000 0.500000 -1.000000
v 0.500000 -1.000000 -1.373824
v -0.500000 1.000000 -1.373824
v 1.000000 0.500000 -1.000000
v 1.508225 -1.000000 0.500000
v 1.508225 1.000000 -0.500000
v 1.000000 0.500000 1.000000
v -0.500000 -1.000000 1.438307
v 0.500000 1.000000 1.438307
v 0.000000 1.000000 0.500000
v 0.000000 1.000000 -0.500000
v 0.500000 1.000000 0.000000
v -0.500000 1.000000 0.000000
v 0.000000 -1.000000 0.500000
v 0.000000 -1.000000 -0.500000
v -0.500000 -1.000000 0.000000
v 0.500000 -1.000000 0.000000
v -0.500000 0.000000 1.438307
v 0.500000 0.000000 1.438307
v 0.000000 -0.500000 1.438307
v 0.000000 0.500000 1.438307
v 1.508225 0.000000 0.500000
v 1.508225 0.000000 -0.500000
v 1.508225 -0.500000 0.000000
v 1.508225 0.500000 0.000000
v 0.500000 0.000000 -1.373824
v -0.500000 0.000000 -1.373824
v 0.000000 -0.500000 -1.373824
v 0.000000 0.500000 -1.373824
v -1.452442 0.000000 -0.500000
v -1.452442 0.000000 0.500000
v -1.452442 -0.500000 0.000000
v -1.452442 0.500000 0.000000
v -1.452442 0.500000 0.500000
v -1.452442 -0.500000 0.500000
v -1.452442 -0.500000 -0.500000
v -0.500000 0.500000 -1.373824
v -0.500000 -0.500000 -1.373824
v 0.500000 -0.500000 -1.373824
v 1.508225 0.500000 -0.500000
v 1.508225 -0.500000 -0.500000
v 1.508225 -0.500000 0.500000
v 0.500000 0.500000 1.438307
v 0.500000 -0.500000 1.438307
v -0.500000 -0.500000 1.438307
v 0.500000 -1.000000 -0.500000
v -0.500000 -1.000000 -0.500000
v -0.500000 -1.000000 0.500000
v -0.500000 1.000000 -0.500000
v 0.500000 1.000000 -0.500000
v 0.500000 1.000000 0.500000
v -0.500000 1.000000 0.500000
v 0.500000 -1.000000 0.500000
v -0.500000 0.500000 1.438307
v 1.508225 0.500000 0.500000
v 0.500000 0.500000 -1.373824
v -1.452442 0.500000 -0.500000
vt 0.562500 0.187500
vt 0.625000 0.187500
vt 0.625000 0.250000
vt 0.562500 0.250000
vt 0.562500 0.437500
vt 0.625000 0.437500
vt 0.625000 0.500000
vt 0.562500 0.500000
vt 0.562500 0.687500
vt 0.625000 0.687500
vt 0.625000 0.750000
vt 0.562500 0.750000
vt 0.562500 0.937500
vt 0.625000 0.937500
vt 0.625000 1.000000
vt 0.562500 1.000000
vt 0.312500 0.687500
vt 0.375000 0.687500
vt 0.375000 0.750000
vt 0.312500 0.750000
vt 0.812500 0.687500
vt 0.875000 0.687500
vt 0.875000 0.750000
vt 0.812500 0.750000
vt 0.687500 0.687500
vt 0.750000 0.687500
vt 0.750000 0.750000
vt 0.687500 0.750000
vt 0.687500 0.562500
vt 0.750000 0.562500
vt 0.750000 0.625000
vt 0.687500 0.625000
vt 0.812500 0.562500
vt 0.875000 0.562500
vt 0.875000 0.625000
vt 0.812500 0.625000
vt 0.187500 0.687500
vt 0.250000 0.687500
vt 0.250000 0.750000
vt 0.187500 0.750000
vt 0.187500 0.562500
vt 0.250000 0.562500
vt 0.250000 0.625000
vt 0.187500 0.625000
vt 0.312500 0.562500
vt 0.375000 0.562500
vt 0.375000 0.625000
vt 0.312500 0.625000
vt 0.437500 0.937500
vt 0.500000 0.937500
vt 0.500000 1.000000
vt 0.437500 1.000000
vt 0.437500 0.812500
vt 0.500000 0.812500
vt 0.500000 0.875000
vt 0.437500 0.875000
vt 0.562500 0.812500
vt 0.625000 0.812500
vt 0.625000 0.875000
vt 0.562500 0.875000
vt 0.437500 0.687500
vt 0.500000 0.687500
vt 0.500000 0.750000
vt 0.437500 0.750000
vt 0.437500 0.562500
vt 0.500000 0.562500
vt 0.500000 0.625000
vt 0.437500 0.625000
vt 0.562500 0.562500
vt 0.625000 0.562500
vt 0.625000 0.625000
vt 0.562500 0.625000
vt 0.437500 0.437500
vt 0.500000 0.437500
vt 0.500000 0.500000
vt 0.437500 0.500000
vt 0.437500 0.312500
vt 0.500000 0.312500
vt 0.500000 0.375000
vt 0.437500 0.375000
vt 0.562500 0.312500
vt 0.625000 0.312500
vt 0.625000 0.375000
vt 0.562500 0.375000
vt 0.437500 0.187500
vt 0.500000 0.187500
vt 0.500000 0.250000
vt 0.437500 0.250000
vt 0.437500 0.062500
vt 0.500000 0.062500
vt 0.500000 0.125000
vt 0.437500 0.125000
vt 0.562500 0.062500
vt 0.625000 0.062500
vt 0.625000 0.125000
vt 0.562500 0.125000
vt 0.500000 0.000000
vt 0.562500 0.000000
vt 0.625000 0.000000
vt 0.375000 0.062500
vt 0.375000 0.125000
vt 0.375000 0.000000
vt 0.437500 0.000000
vt 0.375000 0.187500
vt 0.375000 0.250000
vt 0.375000 0.312500
vt 0.375000 0.375000
vt 0.375000 0.437500
vt 0.375000 0.500000
vt 0.375000 0.812500
vt 0.375000 0.875000
vt 0.375000 0.937500
vt 0.375000 1.000000
vt 0.250000 0.500000
vt 0.312500 0.500000
vt 0.125000 0.562500
vt 0.125000 0.625000
vt 0.125000 0.500000
vt 0.187500 0.500000
vt 0.125000 0.687500
vt 0.125000 0.750000
vt 0.750000 0.500000
vt 0.812500 0.500000
vt 0.875000 0.500000
vt 0.687500 0.500000
vn -0.7415 0.0000 -0.6710
vn 0.5988 0.0000 -0.8009
vn 0.7013 0.0000 0.7129
vn -0.6592 0.0000 0.7520
vn 0.0000 -1.0000 0.0000
vn 0.0000 1.0000 0.0000
vn 0.0000 0.0000 1.0000
vn 1.0000 0.0000 0.0000
vn 0.0000 0.0000 -1.0000
vn -1.0000 0.0000 0.0000
vn -0.7415 0.0000 0.6710
vn -0.5988 0.0000 -0.8009
vn 0.7013 0.0000 -0.7129
vn 0.6592 0.0000 0.7520
usemtl None
s off
f 98/1/1 29/2/1 4/3/1 42/4/1
f 97/5/2 32/6/2 8/7/2 45/8/2
f 96/9/3 35/10/3 6/11/3 48/12/3
f 95/13/4 38/14/4 2/15/4 28/16/4
f 94/17/5 46/18/5 5/19/5 37/20/5
f 93/21/6 41/22/6 2/23/6 38/24/6
f 92/25/6 51/26/6 20/27/6 50/28/6
f 91/29/6 52/30/6 21/31/6 53/32/6
f 90/33/6 29/34/6 11/35/6 54/36/6
f 89/37/5 55/38/5 19/39/5 49/40/5
f 88/41/5 56/42/5 22/43/5 57/44/5
f 87/45/5 34/46/5 16/47/5 58/48/5
f 86/49/4 59/50/4 10/51/4 40/52/4
f 85/53/7 60/54/7 23/55/7 61/56/7
f 84/57/7 50/58/7 20/59/7 62/60/7
f 83/61/3 63/62/3 18/63/3 36/64/3
f 82/65/8 64/66/8 24/67/8 65/68/8
f 81/69/8 47/70/8 17/71/8 66/72/8
f 80/73/2 67/74/2 15/75/2 33/76/2
f 79/77/9 68/78/9 25/79/9 69/80/9
f 78/81/9 44/82/9 14/83/9 70/84/9
f 77/85/1 71/86/1 12/87/1 30/88/1
f 76/89/10 72/90/10 26/91/10 73/92/10
f 75/93/10 41/94/10 11/95/10 74/96/10
f 72/90/10 75/93/10 74/96/10 26/91/10
f 10/97/11 28/98/11 75/93/11 72/90/11
f 28/98/11 2/99/11 41/94/11 75/93/11
f 27/100/10 76/89/10 73/92/10 9/101/10
f 1/102/11 40/103/11 76/89/11 27/100/11
f 40/103/11 10/97/11 72/90/11 76/89/11
f 39/104/1 77/85/1 30/88/1 3/105/1
f 9/101/10 73/92/10 77/85/10 39/104/10
f 73/92/10 26/91/10 71/86/10 77/85/10
f 68/78/9 78/81/9 70/84/9 25/79/9
f 12/87/12 42/4/12 78/81/12 68/78/12
f 42/4/12 4/3/12 44/82/12 78/81/12
f 31/106/9 79/77/9 69/80/9 13/107/9
f 3/105/12 30/88/12 79/77/12 31/106/12
f 30/88/12 12/87/12 68/78/12 79/77/12
f 43/108/2 80/73/2 33/76/2 7/109/2
f 13/107/9 69/80/9 80/73/9 43/108/9
f 69/80/9 25/79/9 67/74/9 80/73/9
f 64/66/8 81/69/8 66/72/8 24/67/8
f 15/75/13 45/8/13 81/69/13 64/66/13
f 45/8/13 8/7/13 47/70/13 81/69/13
f 34/46/8 82/65/8 65/68/8 16/47/8
f 7/109/13 33/76/13 82/65/13 34/46/13
f 33/76/13 15/75/13 64/66/13 82/65/13
f 46/18/3 83/61/3 36/64/3 5/19/3
f 16/47/8 65/68/8 83/61/8 46/18/8
f 65/68/8 24/67/8 63/62/8 83/61/8
f 60/54/7 84/57/7 62/60/7 23/55/7
f 18/63/14 48/12/14 84/57/14 60/54/14
f 48/12/14 6/11/14 50/58/14 84/57/14
f 37/110/7 85/53/7 61/56/7 19/111/7
f 5/19/14 36/64/14 85/53/14 37/110/14
f 36/64/14 18/63/14 60/54/14 85/53/14
f 49/112/4 86/49/4 40/52/4 1/113/4
f 19/111/7 61/56/7 86/49/7 49/112/7
f 61/56/7 23/55/7 59/50/7 86/49/7
f 56/42/5 87/45/5 58/48/5 22/43/5
f 13/114/5 43/115/5 87/45/5 56/42/5
f 43/115/5 7/109/5 34/46/5 87/45/5
f 39/116/5 88/41/5 57/44/5 9/117/5
f 3/118/5 31/119/5 88/41/5 39/116/5
f 31/119/5 13/114/5 56/42/5 88/41/5
f 27/120/5 89/37/5 49/40/5 1/121/5
f 9/117/5 57/44/5 89/37/5 27/120/5
f 57/44/5 22/43/5 55/38/5 89/37/5
f 52/30/6 90/33/6 54/36/6 21/31/6
f 14/122/6 44/123/6 90/33/6 52/30/6
f 44/123/6 4/124/6 29/34/6 90/33/6
f 47/70/6 91/29/6 53/32/6 17/71/6
f 8/7/6 32/125/6 91/29/6 47/70/6
f 32/125/6 14/122/6 52/30/6 91/29/6
f 35/10/6 92/25/6 50/28/6 6/11/6
f 17/71/6 53/32/6 92/25/6 35/10/6
f 53/32/6 21/31/6 51/26/6 92/25/6
f 51/26/6 93/21/6 38/24/6 20/27/6
f 21/31/6 54/36/6 93/21/6 51/26/6
f 54/36/6 11/35/6 41/22/6 93/21/6
f 55/38/5 94/17/5 37/20/5 19/39/5
f 22/43/5 58/48/5 94/17/5 55/38/5
f 58/48/5 16/47/5 46/18/5 94/17/5
f 59/50/4 95/13/4 28/16/4 10/51/4
f 23/55/7 62/60/7 95/13/7 59/50/7
f 62/60/7 20/59/7 38/14/7 95/13/7
f 63/62/3 96/9/3 48/12/3 18/63/3
f 24/67/8 66/72/8 96/9/8 63/62/8
f 66/72/8 17/71/8 35/10/8 96/9/8
f 67/74/2 97/5/2 45/8/2 15/75/2
f 25/79/9 70/84/9 97/5/9 67/74/9
f 70/84/9 14/83/9 32/6/9 97/5/9
f 71/86/1 98/1/1 42/4/1 12/87/1
f 26/91/10 74/96/10 98/1/10 71/86/10
f 74/96/10 11/95/10 29/2/10 98/1/10
